<svg width="199" height="32" viewBox="0 0 199 32" fill="none" xmlns="http://www.w3.org/2000/svg">
<g clip-path="url(#clip0)">
<path d="M5.48834 2.49794C5.48834 1.11837 4.37166 0 2.99417 0C1.61668 0 0.5 1.11837 0.5 2.49794V29.5021C0.5 30.8816 1.61668 32 2.99417 32C4.37166 32 5.48834 30.8816 5.48834 29.5021V2.49794Z" fill="#003399"/>
<path d="M34.9458 5.00363V29.409C34.9562 30.054 34.7223 30.6789 34.2911 31.1582C33.86 31.6375 33.2637 31.9355 32.6221 31.9922C32.2773 32.0191 31.9307 31.974 31.6043 31.8595C31.278 31.7451 30.9789 31.564 30.7261 31.3276C30.4734 31.0913 30.2725 30.8049 30.1361 30.4866C29.9998 30.1683 29.9311 29.8251 29.9343 29.4788V5.00363H15.9917V17.5942V29.4788C15.9561 30.1182 15.6774 30.7197 15.2129 31.1598C14.7483 31.5999 14.1331 31.8451 13.4936 31.8451C12.8542 31.8451 12.239 31.5999 11.7744 31.1598C11.3099 30.7197 11.0312 30.1182 10.9956 29.4788V5.00363C10.9956 3.67658 11.522 2.40389 12.4589 1.46552C13.3959 0.527161 14.6666 -6.46088e-06 15.9917 -6.46088e-06H29.9343C30.5917 -0.00204799 31.243 0.125868 31.8509 0.37641C32.4589 0.626952 33.0115 0.995194 33.477 1.46003C33.9426 1.92486 34.312 2.47715 34.5641 3.08523C34.8161 3.69331 34.9458 4.34524 34.9458 5.00363Z" fill="#003399"/>
<path d="M59.4694 2.5057C59.4694 2.83273 59.4051 3.15656 59.2802 3.45871C59.1553 3.76086 58.9721 4.0354 58.7413 4.26667C58.2782 4.74906 57.6432 5.02802 56.9752 5.04242H51.2045V29.4788C51.2045 29.8078 51.1398 30.1337 51.0141 30.4377C50.8884 30.7417 50.7041 31.0179 50.4717 31.2506C50.2394 31.4833 49.9636 31.6678 49.6601 31.7937C49.3565 31.9197 49.0312 31.9845 48.7026 31.9845C48.3741 31.9845 48.0487 31.9197 47.7452 31.7937C47.4416 31.6678 47.1658 31.4833 46.9335 31.2506C46.7012 31.0179 46.5169 30.7417 46.3912 30.4377C46.2654 30.1337 46.2007 29.8078 46.2007 29.4788V5.00364H40.4378C39.9516 4.9972 39.478 4.84861 39.075 4.57613C38.6721 4.30365 38.3574 3.91916 38.1698 3.46996C37.9822 3.02076 37.9297 2.52643 38.0189 2.04776C38.108 1.5691 38.335 1.12697 38.6717 0.775758C38.8991 0.534483 39.1727 0.341473 39.4761 0.208204C39.7795 0.0749358 40.1065 0.00413089 40.4378 0L56.9752 0C57.6374 0.00205328 58.2718 0.266952 58.7393 0.736639C59.2069 1.20633 59.4694 1.84249 59.4694 2.5057Z" fill="#003399"/>
<path d="M137.099 0H131.359C131.358 0.656544 131.486 1.3069 131.735 1.91388C131.985 2.52087 132.352 3.07257 132.815 3.53745C133.278 4.00316 133.829 4.37247 134.435 4.62411C135.041 4.87575 135.691 5.00474 136.347 5.00364H137.122V26.9964H136.347C135.691 26.9964 135.042 27.1258 134.436 27.3774C133.831 27.6289 133.28 27.9976 132.817 28.4624C132.354 28.9271 131.987 29.4788 131.736 30.0858C131.486 30.6928 131.358 31.3433 131.359 32H137.099C138.422 31.9979 139.691 31.4699 140.626 30.5317C141.562 29.5936 142.087 28.3221 142.087 26.9964V5.00364C142.088 4.34692 141.96 3.69644 141.709 3.08941C141.459 2.48239 141.092 1.93073 140.629 1.466C140.165 1.00127 139.615 0.632581 139.009 0.381029C138.404 0.129478 137.754 -7.91731e-07 137.099 0V0ZM123.869 26.9964H123.094V5.00364H123.869C124.524 5.00364 125.174 4.87416 125.779 4.62261C126.385 4.37106 126.935 4.00237 127.399 3.53764C127.862 3.0729 128.229 2.52125 128.479 1.91422C128.73 1.3072 128.858 0.656721 128.857 0L123.117 0C122.462 -7.91731e-07 121.812 0.129478 121.207 0.381029C120.601 0.632581 120.051 1.00127 119.587 1.466C119.124 1.93073 118.757 2.48239 118.506 3.08941C118.256 3.69644 118.128 4.34692 118.129 5.00364V26.9964C118.129 28.3221 118.654 29.5936 119.589 30.5317C120.525 31.4699 121.794 31.9979 123.117 32H128.857C128.857 30.6743 128.332 29.4028 127.396 28.4646C126.461 27.5265 125.192 26.9984 123.869 26.9964Z" fill="#003399"/>
<path d="M81.4367 -1.95032e-06H67.4941C66.8351 -0.00512699 66.1817 0.120569 65.5715 0.369826C64.9613 0.619083 64.4064 0.986959 63.939 1.4522C63.4716 1.91745 63.1008 2.47084 62.8482 3.08041C62.5955 3.68997 62.466 4.34364 62.467 5.00363V26.9964C62.4686 28.3003 62.9775 29.5523 63.8857 30.4865C64.7939 31.4207 66.03 31.9637 67.3315 32H81.4367C82.7604 31.9979 84.0292 31.4699 84.9644 30.5317C85.8997 29.5936 86.425 28.3221 86.425 26.9964V5.00363C86.4261 4.34691 86.2978 3.69644 86.0475 3.08941C85.7973 2.48239 85.43 1.93073 84.9667 1.466C84.5034 1.00127 83.9532 0.632579 83.3474 0.381027C82.7417 0.129476 82.0924 -2.74205e-06 81.4367 -1.95032e-06ZM81.4367 26.9964H67.4941V5.00363H81.4367V26.9964Z" fill="#003399"/>
<path d="M171.544 13.6223V20.8756C171.544 28.4005 165.456 32 157.935 32H147.579V7.50158C148.902 7.50157 150.172 8.02768 151.109 8.96436C152.045 9.90105 152.573 11.1718 152.575 12.4975V26.9964H157.935C162.691 26.9964 166.548 25.6388 166.548 20.8756V13.6223C166.544 11.3364 165.635 9.14543 164.02 7.52978C162.406 5.91413 160.217 5.00569 157.935 5.00364H152.575C151.919 5.00431 151.269 4.87513 150.663 4.62352C150.056 4.3719 149.506 4.00281 149.043 3.53745C148.577 3.07398 148.208 2.52271 147.957 1.91552C147.706 1.30833 147.577 0.657274 147.579 0L157.935 0C161.542 0.00410199 165 1.44038 167.551 3.99394C170.102 6.54751 171.538 10.01 171.544 13.6223Z" fill="#003399"/>
<path d="M113.381 2.49794C113.381 2.82621 113.317 3.15139 113.192 3.45488C113.067 3.75837 112.884 4.03423 112.652 4.26667C112.425 4.50794 112.151 4.70095 111.848 4.83422C111.545 4.96749 111.218 5.03829 110.886 5.04242H104.395C103.736 5.04245 103.084 4.9117 102.476 4.65773C101.867 4.40376 101.315 4.0316 100.851 3.56275C100.388 3.0939 100.021 2.53765 99.7732 1.92614C99.5253 1.31463 99.4008 0.659974 99.407 0L110.886 0C111.548 0 112.182 0.263175 112.65 0.731629C113.118 1.20008 113.381 1.83544 113.381 2.49794Z" fill="#003399"/>
<path d="M113.381 29.4788C113.378 30.1406 113.115 30.7748 112.648 31.2428C112.18 31.7108 111.547 31.9747 110.886 31.9767H99.407C99.406 31.32 99.5342 30.6695 99.7845 30.0625C100.035 29.4555 100.402 28.9038 100.865 28.4391C101.329 27.9744 101.879 27.6057 102.485 27.3541C103.09 27.1026 103.74 26.9731 104.395 26.9731H110.886C111.215 26.9731 111.54 27.0379 111.843 27.164C112.146 27.29 112.421 27.4747 112.653 27.7075C112.884 27.9402 113.068 28.2165 113.193 28.5205C113.318 28.8244 113.382 29.1501 113.381 29.4788Z" fill="#003399"/>
<path d="M96.9129 -6.46089e-06V32C96.2555 32.002 95.6042 31.8741 94.9963 31.6236C94.3883 31.373 93.8357 31.0048 93.3702 30.54C92.9046 30.0751 92.5352 29.5228 92.2831 28.9148C92.0311 28.3067 91.9014 27.6547 91.9014 26.9964V5.00363C91.9014 4.34524 92.0311 3.69331 92.2831 3.08523C92.5352 2.47715 92.9046 1.92486 93.3702 1.46003C93.8357 0.995194 94.3883 0.626952 94.9963 0.37641C95.6042 0.125868 96.2555 -0.00204799 96.9129 -6.46089e-06Z" fill="#003399"/>
<path d="M198.5 2.49794C198.496 2.82971 198.425 3.15726 198.292 3.46111C198.159 3.76496 197.966 4.03891 197.725 4.26667C197.5 4.50807 197.228 4.70124 196.925 4.83456C196.623 4.96787 196.297 5.03858 195.967 5.04242H189.499C188.841 5.0404 188.19 4.9082 187.583 4.6534C186.976 4.39861 186.426 4.02625 185.963 3.55771C185.5 3.08917 185.134 2.53368 184.886 1.92314C184.639 1.3126 184.514 0.65904 184.519 0L196.006 0C196.667 0 197.302 0.263175 197.769 0.731629C198.237 1.20008 198.5 1.83544 198.5 2.49794Z" fill="#003399"/>
<path d="M198.5 29.4788C198.496 30.14 198.232 30.773 197.765 31.2406C197.298 31.7082 196.666 31.9727 196.006 31.9767H184.519C184.525 30.6564 185.052 29.392 185.985 28.4591C186.918 27.5262 188.181 27.0004 189.499 26.9964H195.99C196.318 26.9943 196.643 27.0569 196.946 27.1806C197.249 27.3042 197.526 27.4865 197.759 27.717C197.992 27.9475 198.177 28.2217 198.304 28.524C198.432 28.8263 198.498 29.1507 198.5 29.4788Z" fill="#003399"/>
<path d="M182.025 0V32C181.369 32 180.719 31.8705 180.114 31.619C179.508 31.3674 178.958 30.9987 178.494 30.534C178.031 30.0693 177.664 29.5176 177.414 28.9106C177.163 28.3036 177.035 27.6531 177.036 26.9964V5.00364C177.035 4.34692 177.163 3.69644 177.414 3.08941C177.664 2.48239 178.031 1.93073 178.494 1.466C178.958 1.00127 179.508 0.632581 180.114 0.381029C180.719 0.129478 181.369 -7.91731e-07 182.025 0Z" fill="#003399"/>
<path d="M191.265 13.4982H186.765C185.387 13.4982 184.271 14.6166 184.271 15.9961C184.271 17.3757 185.387 18.4941 186.765 18.4941H191.265C192.643 18.4941 193.759 17.3757 193.759 15.9961C193.759 14.6166 192.643 13.4982 191.265 13.4982Z" fill="#003399"/>
</g>
<defs>
<clipPath id="clip0">
<rect width="198" height="32" fill="white" transform="translate(0.5)"/>
</clipPath>
</defs>
</svg>
